<?xml version="1.0" encoding="UTF-8"?>
<!-- Generated by Pixelmator Pro 3.6.17 -->
<svg width="765" height="660" viewBox="0 0 765 660" xmlns="http://www.w3.org/2000/svg">
    <g id="boy">
        <g id="outline">
            <path id="Path" fill="#ddc9ab" stroke="none" d="M 586 253 C 586.946655 256.053284 588.599976 261.813354 589 265 C 581.453369 269.47998 561.333374 273.693298 552.82666 275.706665 C 551.093384 267.213318 551.280029 258.946655 550.733276 250.34668 C 549.546631 227.65332 547.613403 205.039978 546.82666 182.333313 C 545.746704 171.76001 545.893311 161.159973 545.040039 150.573303 C 544.466675 140.266663 543.559998 130 543.34668 119.666687 C 542.879944 113.679993 543.013367 107.41333 541.719971 101.546692 C 539.893311 98.34668 536.639954 97 533.360046 95.773315 C 517.65332 90.266663 502.133301 84.320007 486.386658 78.93335 C 462.280029 70.76001 437.773376 61.799988 413.626648 53.986694 C 405.213318 51.23999 396.573303 47.65332 387.973328 45.906677 C 383.639954 44.839966 378.946716 46.893311 374.693359 47.93335 C 363.946716 50.719971 353.200012 53.533325 342.440002 56.320007 C 279.706726 71.799988 217.280029 88.47998 154.773315 104.840027 C 151.23999 106.106689 146.65332 105.706665 146.320007 110.453308 C 145.666687 116.986694 147.013367 123.76001 147.06665 130.34668 C 148.773315 160.559998 149.93335 190.82666 152.226685 220.986694 C 152.76001 243.720032 154.960022 266.293335 155.786682 289 C 155.946655 293.893372 156.679993 299.039978 156.119995 303.893372 C 153.186707 307.506653 149 310.026672 145.946655 313.626648 C 138.013367 322.786682 130.679993 332.359985 124.440002 342.773315 C 121.640015 348.199982 115.76001 346.546661 111.213318 350.853363 C 104.546692 355.720001 103.159973 362.533325 103.506653 370.399994 C 96.58667 379.453339 90.733337 389.106659 87.093323 399.946655 C 83.82666 410.786652 83.52002 422.266693 87.960022 432.839996 C 90.866638 440.47998 96.119995 446.853363 102.533325 451.853363 C 106.359985 454.839996 110.786682 454.493317 114.880005 456.786652 C 118.399963 458.76001 121.559998 460.813324 125.58667 461.720001 C 129.919983 462.680023 134.34668 461.76001 138.720032 461.666656 C 142.906677 462.720001 146.159973 465.026642 150.65332 464.906647 C 157.733337 465.41333 164.026672 462.986664 168.799988 457.746674 C 172.960022 453.266693 173.986633 447.93335 175.613342 442.253326 C 180.013367 440.600006 184.106628 438.506683 187.440002 435.106659 C 192.533325 430.466675 194.786682 423.600006 196.06665 417.026642 C 197.306702 410.839996 195.52002 405.58667 194.679993 399.493317 C 208.159973 403.493317 220.773376 411.013336 233.52002 416.880005 C 250.133301 425.160004 266.813293 433.293335 283.360046 441.680023 C 287.76001 443.839996 292.41333 447.146637 297.280029 447.906647 C 303 448.52002 309.013367 447.973358 314.666687 447.013336 C 313.41333 451.533325 312.226624 455.853363 309.320007 459.640015 C 300.23999 472.040009 284.919983 479.573334 269.813293 481 C 268.373352 477.053345 266.986633 473.41333 263.613342 470.706665 C 259.719971 467.06665 254.799988 467.626678 250.546631 465.160004 C 247.053284 462.786652 244.013367 460.06665 240.133301 458.266693 C 232.600037 454.426666 223.440002 453.839996 215.426697 456.426666 C 207.600037 459.293335 200.613342 464.58667 195.546692 471.186676 C 188.093323 481.493317 183.58667 493.600006 183.453308 506.399994 C 182.053345 525.626709 187.306702 544.573364 201.453308 558.146606 C 215.17334 570.133301 233.879944 576.466675 251.959961 576.773315 C 262.82666 576.786743 273.65332 575.573364 282.773376 569.146606 C 290.133301 564.200073 295.559998 556.76001 296.253357 547.719971 C 296.360046 541.040039 293.266663 534.47998 287.986633 530.373291 C 283.06665 526.58667 277.133301 524.533325 271.23999 522.839966 C 272.200012 520.946655 273.159973 519.053345 274.093323 517.146606 C 285.080017 515.573364 295.52002 514.333374 305.613342 509.319977 C 319.746643 502.973358 331.399963 492.626678 340.679993 480.34668 C 350.34668 467.026642 356.013367 452.293335 361.333313 436.893341 C 365.693359 435.026642 370.719971 434.47998 375.320007 433.34668 C 390.186707 429.786652 405.186707 426.426666 420.120056 423.119995 C 423.853333 422.306671 427 425.23999 429.959961 427.079987 C 453.386658 441.93335 472.973328 463.439972 487.426697 487.013336 C 488.573303 489.026642 489.986633 489.146637 492.120056 489.65332 C 488.386658 498.093353 486.47998 507.58667 491.746643 515.866699 C 493.493347 519.106689 496.373352 520.599976 499.386658 522.466675 C 499.879944 527.880005 500.453369 532.986694 503.06665 537.866699 C 507.253357 546.533325 516.266663 552 525.52002 553.719971 C 534.47998 555.106689 543.266663 553.373291 551.52002 549.800049 C 571.06665 541.053345 586.559937 526.640015 599.040039 509.439972 C 607.546631 497.47998 614.52002 484.880005 617.533325 470.359985 C 619.333374 461.41333 618.053345 452.279999 614.693359 443.866669 C 610.746704 434.906647 602.959961 427.706665 593.333374 425.426666 C 581.400024 422.34668 568.746704 426.359985 558.680054 432.853363 C 545.893311 440.946655 537.280029 452.253326 528.133301 463.986664 C 524.399963 463.946655 520.893311 464.279999 517.280029 465.266693 C 511.893311 455.733307 504.906677 447.453339 497.626648 439.333344 C 492.986633 434.106659 487.613342 429.920013 482.573303 425.06665 C 477.306641 420.013336 471.159973 416.41333 464.906677 412.733307 C 478.533386 408.319977 492.879944 406.053345 506.706726 402.373322 C 517.280029 399.613312 528.06665 397.920013 538.65332 395.213348 C 544.133301 393.813324 550.226685 393.199982 555.34668 390.813324 C 558.493286 387.119995 557.866699 381.41333 557.493286 376.93335 C 555.880005 354.279999 554.813354 331.52002 553.799927 308.82666 C 564.93335 306.546692 575.533325 304.17334 585.626587 298.693298 C 590.146606 296.159973 597.866577 283.960022 602 281 C 605.199951 280.906677 614.013306 284.733337 617 286 C 611.82666 290.093384 598.453369 302.226685 592.733276 305.52002 C 583.52002 310.65332 573.506714 315.013367 563 316.440002 C 564.026733 338.813324 564.813354 361.213348 565.906616 383.573334 C 566.053345 388.213348 564.773315 393.693329 561.58667 397.199982 C 556.959961 401.453339 549.640015 401.839996 543.773376 403.199982 C 524.853333 407.893341 505.840027 411.946655 486.76001 415.880005 C 492.23999 421.453339 498.613342 425.93335 503.879944 431.746674 C 511.080017 439.160004 516.666687 448.013336 524.026672 455.23999 C 529.893311 447.880005 535.41333 440.466675 542.679993 434.373322 C 548.839966 428.613312 555.973267 424.279999 563.506714 420.560028 C 572.813354 416.319977 584.040039 414.013336 594.133301 416.266693 C 604.693359 418.76001 614.200073 425.23999 619.719971 434.680023 C 627.959961 448.253326 628.079956 464.680023 623.880005 479.613312 C 617.266724 501.720001 602.666626 520.746704 586.400024 536.733276 C 580.34668 542.226685 573.533325 547.17334 566.680054 551.65332 C 554.426636 559.133301 540.159973 564.666626 525.559998 562.493286 C 512.58667 560.853394 500.320007 552.93335 494.65332 540.973389 C 492.613342 536.800049 491.813293 532.306641 490.200012 528 C 487.453369 523.880005 483.813293 520.959961 482.253357 516.026611 C 479.399963 508.893341 480.533386 502.199982 480.906677 494.82666 C 478.973328 490.093353 475.639954 485.813324 472.65332 481.693329 C 461.666687 466.680023 448.626648 453.146637 434.080017 441.546661 C 430.06665 438.399994 426.026672 434.613312 421.373352 432.453339 C 415.786682 432.533325 410.093323 434.733307 404.600037 435.786652 C 395.399963 437.58667 386.466614 440.359985 377.280029 442.226685 C 374.666687 442.880005 371.65332 443.399994 369.360046 444.839996 C 365.493347 453.040009 362.493347 461.58667 357.76001 469.426666 C 346.93335 488.82666 330.679993 506.973358 310.65332 517.06665 C 305.320007 519.946655 299.879944 521.146606 294.253357 523.34668 C 297.786682 527.533325 301.280029 531.266724 303.186707 536.533325 C 305.186707 541.213379 304.906677 546.719971 304.386658 551.693359 C 303.52002 560.41333 297.666687 568.079956 291.17334 573.573364 C 276.973328 584.559937 257.41333 587.280029 240.080017 584.319946 C 222.840027 582.079956 205.946716 574.386597 193.426697 562.253296 C 181.679993 551.186646 175.919983 534.093384 174.813293 518.319946 C 173.41333 504.813324 176.186707 490.946655 181.373352 478.47998 C 186.399963 467.23999 194.919983 456.600006 206.120056 451.053345 C 220.65332 442.866669 240.06665 446.226685 253 456 C 256.386658 458.65332 260.23999 458.76001 264.120056 460.800018 C 268.866699 463.119995 272.186707 466.746674 275.773376 470.506683 C 285.533386 467.306671 294.506653 464.093353 301.026672 455.640015 C 295.186707 454.640015 289.58667 453.866669 284.093323 451.533325 C 264.426697 441.973358 244.986633 431.906647 225.373352 422.279999 C 218.52002 419.06665 212.639954 415.47998 205.360046 413.533325 C 204.080017 427.053345 198.399963 440.453339 185.986633 447.17334 C 182.34668 449.199982 181.946655 452.47998 180.213318 455.906647 C 176.76001 462.880005 171.293335 469.026642 163.786682 471.640015 C 156.906677 474.426666 149.426697 474.146637 142.453308 471.839996 C 137.58667 470.06665 133.080017 471.079987 128.06665 470.720001 C 123.17334 470.226685 118.200012 468.013336 113.813293 465.866669 C 108.52002 463.186676 102.93335 462.533325 97.93335 459.119995 C 86.359985 451.680023 79.613342 438.199982 77.186707 424.986664 C 74.266663 406.17334 80.626648 388.666656 90.893372 373.17334 C 92.973328 369.93335 95.573303 367.76001 95.746643 363.680023 C 96.720032 353.82666 102.306702 344.680023 111.493347 340.533325 C 116.626648 338.359985 117.58667 333.853363 120.58667 329.626648 C 128.093323 318.559998 136.893372 308.17334 147.026672 299.41333 C 147.293335 289.65332 145.919983 280.026672 145.82666 270.293335 C 145.640015 262.080017 144.666687 253.906677 144.426697 245.693298 C 143.213318 234.359985 143.559998 223.013367 142.359985 211.679993 C 142.106628 197.853333 140.34668 184.17334 140.119995 170.333313 C 138.799988 153.466675 138.640015 136.546692 137.23999 119.679993 C 136.93335 114.93335 137.080017 110.306641 138.559998 105.733337 C 140.039978 101.506653 143.706665 98.400024 148.013367 97.34668 C 182.213318 88.599976 216.34668 79.440002 250.47998 70.440002 C 289.559998 60.106689 328.799988 50.400024 367.973328 40.47998 C 374.333313 38.746643 381.386658 36.47998 388 36.626648 L 388 36.626648 C 393.426697 36.76001 398.013367 38.693298 402.986633 40.559998 C 414.399963 44.93335 426.080017 48.400024 437.58667 52.506653 C 457.679993 58.786682 477.213318 66.799988 497.320007 73.026672 C 513.080017 78.559998 529.266663 83.599976 544.786743 89.666687 C 549.453369 91.719971 551.47998 94.546692 551.733276 99.666687 C 553.719971 125.373352 554.559937 151.226685 555.706665 176.986694 C 556.866699 187.186646 556.226685 197.41333 557.426636 207.613342 C 558.079956 216.506653 557.93335 225.426697 558.82666 234.333313 C 559.680054 244.34668 559.160034 254.52002 560.466675 264.466675 C 565.559937 262.306702 581.106689 255.573303 586 253 Z"/>
        </g>
        <g id="top-of-head">
            <path id="path1" fill="#ddc9ab" stroke="none" d="M 382.906677 57.293335 C 386.613342 56.400024 390.453369 58.213318 393.986633 59.266663 C 433.266663 73.186646 472.986633 86.17334 512.440002 99.626648 C 502 103.053345 491.306641 104.719971 480.613342 107.119995 C 418.453369 121.613342 357.053284 137.599976 295.306641 153.693359 C 289.399963 155.200012 283.453369 157.453308 277.386658 158.093323 C 274.053284 157.466675 270.853333 155.866638 267.693359 154.666687 C 241.626648 144.34668 215.773376 133.533325 189.679993 123.293335 C 181.853333 119.866638 173.52002 117.200012 166.119995 112.946655 C 183.986633 107.34668 202.226685 103.506653 220.226624 98.466675 C 260.053284 88.266663 299.813293 77.840027 339.76001 68.093323 C 354.120056 64.533325 368.466614 60.506653 382.906677 57.293335 Z"/>
        </g>
        <g id="left-side">
            <path id="path2" fill="#ddc9ab" stroke="none" d="M 156.866638 122.47998 C 172.853333 128.799988 188.733337 135.359985 204.786682 141.533325 C 229.213318 151.213318 253.426697 161.386658 277.786682 171.23999 C 279.23999 203.306641 280.786682 235.640015 282.773376 267.666687 C 284.840027 317.453308 288.600037 367.226685 291.159973 417 C 291.386658 422.560028 292.52002 427.893341 291.719971 433.493317 C 280.373352 428.52002 269.559998 422.52002 258.306641 417.359985 C 235.373352 405.82666 211.813293 395.306671 188.52002 384.506683 C 182.320007 381.986664 177.026672 378.17334 171.466675 374.546661 C 171.23999 368.640015 169.973328 362.893341 169.706665 357 C 169.466675 351.839996 169.226685 346.720001 168.333313 341.626678 C 170.533325 337.053345 174.279968 334.253326 178.213318 331.253357 C 193.600037 319.613342 211.17334 315.373352 229.360046 310.34668 C 236.47998 308.159973 244.879944 307.946655 249.053284 300.76001 C 254.333313 291.82666 250.293274 280.159973 240.76001 276.253357 C 234.693359 273.41333 228.93335 276.186707 222.853333 277.440002 C 205.613342 281.493347 188.813293 285.640015 173.119995 294.146667 C 171.053345 294.960022 168.453308 297.320007 166.226685 296.293335 C 165.386658 268.893372 163.200012 241.679993 161.853333 214.280029 C 160.600037 183.666687 157.866638 153.093323 156.866638 122.47998 Z"/>
        </g>
        <g id="right-hand">
            <path id="path3" fill="#ddc9ab" stroke="none" d="M 630.626587 180.58667 C 636.253296 180.359985 642.440063 182.746643 644.640015 188.359985 C 649 199.186646 649.400024 211.919983 648.466675 223.399963 C 645.82666 224.866638 643.093384 226.946655 639.920044 226.65332 C 632.786743 226.039978 626.746704 219.840027 625.906616 212.799988 C 625.453369 209.053345 625.06665 205.293335 624.47998 201.559998 C 622.82666 201.733337 620.040039 200.893311 619.440063 203.026672 C 617.226685 209.559998 618.306641 217.373352 621.773315 223.306702 C 622.773315 225.226685 624.186646 227.06665 624.813354 229.146667 C 624.880005 234 623.813354 239.213318 620.893311 243.200012 C 617.546631 248.373352 613.266724 251.880005 610.973267 257.65332 C 622.293335 254.52002 631.106689 246.026672 632.079956 233.93335 C 635.106689 234.013367 638.133301 234.093323 641.160034 234.159973 C 639.506714 237.039978 637.093384 240.266663 636.58667 243.613342 C 636.06665 246.706665 635.466675 249.600037 634.040039 252.41333 C 631.41333 257.613342 631.973267 264.359985 634.013306 269.666687 C 635.440063 273.573303 638.546631 275.266663 641.706665 277.600037 C 637.733276 282.133362 632.813354 285.466675 626.693359 286.080017 C 620.266724 286.746643 612.680054 286.546692 606.880005 283.359985 C 598.93335 278.693298 591.93335 273.159973 588.306641 264.399963 C 584.213257 256.17334 583.200073 248.146667 585.17334 239.119995 C 589.079956 242.133362 592.319946 245.82666 595.986694 249.093323 C 597.47998 250.693298 600.693359 249.533325 602.626587 249.559998 C 600.626587 242.226685 593.906616 239.053345 593.040039 231.706665 C 591.613403 224.373352 593.293335 217.400024 596.453369 210.773315 C 599.306641 204.386658 602.079956 198.426697 607.23999 193.52002 C 613.946655 187.226685 621.293335 181.960022 630.626587 180.58667 Z"/>
            <path id="path4" fill="#ddc9ab" stroke="none" d="M 667.973267 198.719971 C 673.293335 198.293335 679.226685 199.34668 683.319946 203.013306 C 689.040039 207.506653 689.23999 217.400024 683.733276 222.159973 C 680.186646 221.533325 676.82666 219.546692 673.41333 218.373352 C 668.946655 216.640015 664.386597 216.58667 659.626587 216.080017 C 658.706665 212.06665 657.093384 207.813354 658.866699 203.799988 C 660.559937 200.426697 664.453369 199.106689 667.973267 198.719971 Z"/>
            <path id="path5" fill="#ddc9ab" stroke="none" d="M 663.986694 225.799988 C 670.559937 225.546692 678.280029 227.76001 681.986694 233.613342 C 684.680054 238.386658 682.093384 243.306702 680.47998 247.946655 C 678.559937 248.679993 676.640015 249.426697 674.719971 250.17334 C 672.17334 248.506653 669.440063 246.399963 666.506714 245.533325 C 661.799927 244.266663 656.58667 244.506653 651.680054 244.23999 C 650.853394 241.23999 649.373413 238.773315 650.333374 235.600037 C 651.613403 229.733337 658.319946 225.840027 663.986694 225.799988 Z"/>
            <path id="path6" fill="#ddc9ab" stroke="none" d="M 671.440063 258.853333 C 674.786743 263.82666 672.493286 272 667.906616 275.506653 C 662.226685 279.58667 655.866699 282.573303 648.706665 280.906677 C 652.160034 277.493347 656.23999 276.226685 660.41333 273.880005 C 655.986694 269.919983 650.226685 272.52002 645.23999 269.23999 C 640.946655 266.23999 640.706665 259.506653 643.946655 255.693298 C 652.146606 250.226685 664.773315 251.440002 671.440063 258.853333 Z"/>
        </g>
        <g id="face">
            <path id="path7" fill="#ddc9ab" stroke="none" d="M 532.213318 108.200012 C 532.360046 129.41333 534.866699 150.466675 535.373352 171.706665 C 536.733337 184.119995 536.840027 196.559998 537.866699 209 C 538.853333 235.226685 540.986633 261.426697 541.93335 287.65332 C 544.213257 317.373352 544.640015 347.079987 546.880005 376.746674 C 546.959961 379.58667 547.160034 381.41333 543.853333 382 C 513.159973 388.920013 482.719971 396.893341 452 403.573334 C 402.146667 415.079987 352.426697 426.800018 302.466614 437.800018 C 299.386658 391.253326 296.946716 344.813324 294.23999 298.253357 C 293.679993 279.613342 291.866699 261.013367 291.213318 242.373352 C 289.959961 217.320007 288.799988 192.293335 287.146667 167.253357 C 325.919983 156.533325 365 146.599976 403.986633 136.666687 C 439.76001 127.880005 475.666687 118.799988 511.76001 111.440002 C 518.733337 110.026672 525.306641 107.840027 532.213318 108.200012 Z"/>
            <path id="path8" fill="#10120e" stroke="none" d="M 467.426697 169.906677 C 471.293274 168.76001 475.506653 168.773315 478.693359 171.559998 C 485.466614 176.986694 487.493347 186.039978 487.52002 194.320007 C 487.600037 200.679993 486.306641 208.506653 481.253357 212.946655 C 478 215.666687 473.266663 217.533325 469.093323 215.946655 C 465.013367 214.280029 461.746643 210.466675 459.93335 206.52002 C 456.973328 199.799988 457.23999 191.453308 458.146667 184.306641 C 459.159973 178.973328 462.373352 172.426697 467.426697 169.906677 Z"/>
            <path id="path9" fill="#10120e" stroke="none" d="M 389.76001 187.039978 C 393.879944 185.41333 397.973328 186 401.093323 189.200012 C 407.053284 195.093323 409.226624 204.880005 409.080017 212.986694 C 409.06665 219.17334 408.293274 225.786682 404.559998 230.946655 C 402 234.23999 397.253357 236.493347 393.226624 234.426697 C 387.786682 231.693298 385.426697 226.746643 383.506653 221.253357 C 381.23999 215.400024 381.360046 208.52002 381.76001 202.320007 C 382.386658 196.786682 384.986633 190.23999 389.76001 187.039978 Z"/>
            <path id="path10" fill="#10120e" stroke="none" d="M 480.399963 239.279968 C 482.533386 241.119995 482.813293 243.640015 482.719971 246.320007 C 481.813293 261.039978 472.733337 275.119995 459.719971 282.053345 C 449.133301 288.23999 435.573303 289.359985 423.813293 286.359985 C 412.386658 283.279968 401.040039 273.226685 399.546631 261.039978 C 398.666687 257.213318 401.666687 252.880005 405.426697 251.986633 C 410.013367 250.840027 415.280029 252.013367 420 252.06665 C 430.093323 252.746643 439.893311 251.359985 449.333313 247.746643 C 456.546631 245 463.146667 240.093323 470.426697 237.76001 C 473.946716 236.82666 477.613342 236.47998 480.399963 239.279968 Z"/>
            <path id="path11" fill="#e0a114" stroke="none" d="M 437.34668 271.053345 C 441.733337 271.466675 448.613342 271.34668 451.200012 275.600037 C 442.93335 278.17334 431.386658 280.426697 423.613342 275.600037 C 425.879944 270.733337 432.82666 271.186707 437.34668 271.053345 Z"/>
            <path id="path12" fill="#e0a114" stroke="none" d="M 449.453369 319.146667 C 453.053284 320.226685 455.719971 323.893372 456.06665 327.58667 C 456.799988 333.319977 456.693359 339.226685 457.026672 345 C 457.52002 353.426666 458.47998 361.906647 458.34668 370.34668 C 458.453369 374.839996 455.639954 378.920013 451.373352 380.319977 C 444.426697 382.506683 437.200012 383.866669 430.17334 385.773315 C 425.533386 386.853363 420.773376 388.453339 416 388.680023 C 412.613342 388.906647 409.293274 386.800018 408.23999 383.546661 C 406.266663 376.866669 406.306641 369.279999 406.06665 362.359985 C 405.866699 353.680023 404.47998 345.666656 404.93335 336.946655 C 405.040039 332.399963 408.23999 328.146667 412.706726 327.039978 C 419.47998 325.093323 426.493347 324.039978 433.306641 322.159973 C 438.426697 320.840027 444.133301 318.893372 449.453369 319.146667 Z"/>
            <path id="path13" fill="#10120e" stroke="none" d="M 431.986633 337.65332 C 438.853333 339.693329 441.133301 346.706665 442.386658 353.013336 C 442.879944 355.640015 439.440002 356.853363 437.866699 358.359985 C 439.040039 362.906647 440.186707 367.453339 441.080017 372.06665 C 436.06665 372.600006 431.053284 373.186676 426.040039 373.733307 C 426.626648 369.013336 427.253357 364.293335 427.799988 359.560028 C 425.919983 358.800018 424.053284 358.040009 422.17334 357.266693 C 422.893311 352.560028 423.133301 347.426666 424.773376 342.93335 C 426.213318 339.773315 429.026672 338.893341 431.986633 337.65332 Z"/>
        </g>
        <g id="left-hand">
            <path id="path14" fill="#ddc9ab" stroke="none" d="M 121.093323 355.013336 C 123.559998 359.613312 125.600037 363.93335 129.906677 367.146637 C 135.533325 371.626678 143.453308 372.399994 149.880005 369.199982 C 152.159973 367.693329 154.119995 365.65332 156.159973 363.853363 C 158.320007 365.746674 160.320007 367.720001 162.186707 369.920013 C 160.893372 373.319977 160.080017 377.040009 157.119995 379.439972 C 154.333313 381.600006 151.146667 383.293335 148.146667 385.133331 C 148.426697 386.293335 148.706665 387.466675 148.986633 388.626678 C 155.146667 388.573334 159.679993 385.880005 164.373352 382.253326 C 171.47998 385.41333 179.986633 390.199982 183.546692 397.439972 C 187.119995 403.733307 188.573303 411.319977 186.493347 418.34668 C 184.306702 424.47998 181.080017 430.079987 174.493347 432.146637 C 174.093323 427.613312 174.453308 422.06665 172.506653 417.880005 C 171.47998 416.040009 170.17334 415.76001 168.559998 417.053345 C 167.906677 428.040009 169.306702 442.106659 162.52002 451.493317 C 157.82666 458.253326 147.23999 458.626678 141.93335 452.41333 C 138.226685 448.253326 138.986633 443.693329 137.93335 438.600006 C 137.733337 436.76001 134.679993 435.053345 133.866638 437.426666 C 131.119995 442.160004 132.613342 449.373322 133.039978 454.58667 C 128.106628 454.746674 123.613342 453.986664 120.386658 449.920013 C 115.600037 444.546661 116.23999 438.560028 113.906677 432.359985 C 112.880005 430.133331 110.880005 430.93335 108.840027 430.506683 C 108.226685 435.133331 108.133362 439.773315 108.159973 444.439972 C 106.359985 443.373322 104.266663 442.426666 102.746643 440.973358 C 95.106628 432.680023 91.559998 421.546661 93.426697 410.34668 C 95.186707 400.666656 99.386658 391.306671 104.613342 383.013336 C 106.119995 381.226685 107.720032 377.720001 110.466675 379.880005 C 116.213318 383.839996 122.23999 388.533325 129.559998 385.279999 C 125.773315 381.65332 121.359985 378.920013 117.34668 375.58667 C 114.546692 373 111.893372 370.52002 112.52002 366.34668 C 112.813293 360.839996 116.266663 357.213348 121.093323 355.013336 Z"/>
        </g>
        <g id="right-foot">
            <path id="path15" fill="#ddc9ab" stroke="none" d="M 590.733276 434.34668 C 596.573364 435.399994 600.186646 439.213348 603.76001 443.600006 C 592.319946 444.813324 583.333374 451.17334 575.333374 459.013336 C 562.76001 471.34668 552.280029 486.213348 542.453369 500.786652 C 535.919983 510.41333 530.306641 520.439941 526.52002 531.47998 C 525.186707 535.400024 524.906677 539.386719 524.600037 543.47998 C 517.440002 540.706665 511.333313 535.800049 508.879944 528.306641 C 507.146667 522.41333 509.733337 516.533325 510.06665 510.600006 C 507.879944 512.106689 505.733337 513.680054 503.626648 515.280029 C 501.360046 512.880005 498.799988 510.82666 498.080017 507.453339 C 496.853333 501.453339 498.639954 494.773315 501.613342 489.506683 C 506.65332 480.853363 513.840027 473.76001 524.17334 472.319977 C 522 479.65332 518.706726 488.17334 519.600037 495.853363 C 520.866699 496.946655 522.853333 496.333344 524.41333 496.359985 C 529.919983 476.58667 541.58667 458.23999 557.41333 445.133331 C 566.666626 438.06665 578.719971 431.41333 590.733276 434.34668 Z"/>
            <path id="path16" fill="#ddc9ab" stroke="none" d="M 607.053345 450.93335 C 610.06665 460.560028 608.013306 469.773315 604.839966 479.013336 C 598.973267 494.186676 589.719971 507.666656 578.280029 519.17334 C 571.680054 526.040039 564.17334 532.106689 556.026733 537.053345 C 549.213257 540.613281 541.559998 544.439941 533.773376 544.680054 C 533.639954 541.839966 533.23999 538.666626 534.146667 535.946655 C 537.706726 525.06665 543.626648 516.306641 549.786743 506.82666 C 556.880005 496.533325 563.52002 486.199982 571.799927 476.800018 C 577.47998 469.58667 583.693359 462.920013 590.973267 457.306671 C 595.693359 453.693329 601.200073 451.733307 607.053345 450.93335 Z"/>
        </g>
        <g id="left-foot">
            <path id="path17" fill="#ddc9ab" stroke="none" d="M 226.679993 464.079987 C 232.106689 463.986664 236.47998 466.23999 240.320007 469.93335 C 235.840027 473.720001 232.026672 477.733307 230.706726 483.65332 C 229.879944 488.013336 228.879944 492.373322 231.666687 496.253326 C 234.226624 491.199982 236.133301 485.06665 239.639954 480.65332 C 243.666687 475.640015 251.360046 473.65332 256.919983 477.426666 C 259.34668 478.65332 259.320007 481.533325 260.06665 483.839996 C 254.840027 485.319977 250.23999 487.279999 247.600037 492.333344 C 244.440002 497.693329 246.546631 503.706665 250 508.293335 C 253.493347 513.306641 259.559998 514.706665 264.973328 516.666626 C 264.280029 517.746704 263.58667 518.82666 262.893311 519.906616 C 257.853333 519.946655 252.34668 520.880005 247.65332 518.786621 C 243.386658 517.160034 240.506653 513.733276 236.493347 511.82666 C 233.546631 515.746704 239.386658 520.613281 241.52002 523.65332 C 236.026672 525.079956 228.853333 525.786621 224.360046 529.439941 C 223.080017 530.23999 223.34668 532.34668 222.946716 533.666626 C 230.280029 534.186646 236.773376 531.706665 244.026672 531.026611 C 253.706726 529.426636 263.613342 529.733276 273.120056 532.253296 C 278.733337 534.026611 284 537.533325 285.626648 543.506714 C 287.559998 548.47998 285.17334 553.813354 282.23999 557.82666 C 278.813293 562.493286 273.879944 564.013306 268.693359 565.93335 C 255.533386 571.17334 240.093323 568.186646 227.306641 563.17334 C 216.213318 559.333374 205.626648 551.453369 199.946655 541.040039 C 194.266663 531.226685 192.613342 520.253296 192.613342 509.053345 C 192.866638 497.880005 196.679993 486.666656 203.253357 477.640015 C 209.040039 470.106659 216.706726 463.946655 226.679993 464.079987 Z"/>
        </g>
    </g>
</svg>
